<svg width="192" height="192" viewBox="0 0 192 192" fill="none" xmlns="http://www.w3.org/2000/svg">
<rect width="192" height="192" fill="#096DD9"/>
<g clip-path="url(#clip0_12_15)">
<path d="M134.82 63.17V40.93C134.82 32.68 128.14 26 119.89 26H72.11C63.86 26 57.18 32.68 57.18 40.93V87.51C57.18 89.49 57.97 91.39 59.37 92.79L86.49 119.91C87.19 120.61 87.58 121.56 87.58 122.55V134.83C87.58 136.2 88.69 137.32 90.07 137.32H101.95C103.32 137.32 104.44 136.21 104.44 134.83V116.09C104.44 114.77 103.92 113.5 102.98 112.57L75.86 85.45C74.69 84.28 74.04 82.7 74.04 81.05V47.83C74.04 45.08 76.27 42.85 79.02 42.85H113C115.75 42.85 117.98 45.08 117.98 47.83V50.77C117.98 51.76 118.37 52.71 119.07 53.41L130.58 64.92C132.15 66.49 134.83 65.38 134.83 63.16L134.82 63.17Z" fill="white"/>
<path d="M115.85 82.42L105.52 72.09C104.82 71.39 104.43 70.44 104.43 69.45V57.17C104.43 55.8 103.32 54.68 101.94 54.68H90.06C88.69 54.68 87.57 55.79 87.57 57.17V75.91C87.57 77.23 88.09 78.5 89.03 79.43L116.15 106.55C117.32 107.72 117.97 109.3 117.97 110.95V144.17C117.97 146.92 115.74 149.15 112.99 149.15H79.01C76.26 149.15 74.03 146.92 74.03 144.17V119.72C74.03 118.73 73.64 117.78 72.94 117.08L61.43 105.57C59.86 104 57.18 105.11 57.18 107.33V151.08C57.18 159.33 63.86 166.01 72.11 166.01H119.89C128.14 166.01 134.82 159.33 134.82 151.08V80.23C134.82 79.24 134.43 78.29 133.73 77.59L122.22 66.08C120.65 64.51 117.97 65.62 117.97 67.84V81.55C117.97 82.66 116.63 83.21 115.85 82.43V82.42Z" fill="white"/>
</g>
<defs>
<clipPath id="clip0_12_15">
<rect width="77.64" height="140" fill="white" transform="translate(57.18 26)"/>
</clipPath>
</defs>
</svg>
