<svg width="115" height="50" viewBox="0 0 115 50" fill="none" xmlns="http://www.w3.org/2000/svg">
<g clip-path="url(#clip0_14_75)">
<path d="M27.7286 13.275V5.33214C27.7286 2.38571 25.3429 0 22.3964 0H5.33214C2.38571 0 0 2.38571 0 5.33214V21.9679C0 22.675 0.282143 23.3536 0.782143 23.8536L10.4679 33.5393C10.7179 33.7893 10.8571 34.1286 10.8571 34.4821V38.8679C10.8571 39.3571 11.2536 39.7571 11.7464 39.7571H15.9893C16.4786 39.7571 16.8786 39.3607 16.8786 38.8679V32.175C16.8786 31.7036 16.6929 31.25 16.3571 30.9179L6.67143 21.2321C6.25357 20.8143 6.02143 20.25 6.02143 19.6607V7.79643C6.02143 6.81429 6.81786 6.01786 7.8 6.01786H19.9357C20.9179 6.01786 21.7143 6.81429 21.7143 7.79643V8.84643C21.7143 9.2 21.8536 9.53929 22.1036 9.78929L26.2143 13.9C26.775 14.4607 27.7321 14.0643 27.7321 13.2714L27.7286 13.275Z" fill="#0D6EFD"/>
<path d="M20.9536 20.1499L17.2643 16.4607C17.0143 16.2107 16.875 15.8714 16.875 15.5178V11.1321C16.875 10.6428 16.4786 10.2428 15.9857 10.2428H11.7429C11.2536 10.2428 10.8536 10.6392 10.8536 11.1321V17.8249C10.8536 18.2964 11.0393 18.7499 11.375 19.0821L21.0607 28.7678C21.4786 29.1857 21.7107 29.7499 21.7107 30.3392V42.2035C21.7107 43.1857 20.9143 43.9821 19.9321 43.9821H7.79643C6.81429 43.9821 6.01786 43.1857 6.01786 42.2035V33.4714C6.01786 33.1178 5.87857 32.7785 5.62857 32.5285L1.51786 28.4178C0.957143 27.8571 0 28.2535 0 29.0464V44.6714C0 47.6178 2.38571 50.0035 5.33214 50.0035H22.3964C25.3429 50.0035 27.7286 47.6178 27.7286 44.6714V19.3678C27.7286 19.0142 27.5893 18.6749 27.3393 18.4249L23.2286 14.3142C22.6679 13.7535 21.7107 14.1499 21.7107 14.9428V19.8392C21.7107 20.2357 21.2321 20.4321 20.9536 20.1535V20.1499Z" fill="#0D6EFD"/>
</g>
<path d="M48.3925 48.4921V41.7441L41.7285 28.8921H45.8445L49.9885 37.2921H50.4925L54.6365 28.8921H58.7525L52.0885 41.7441V48.4921H48.3925Z" fill="black"/>
<path d="M65.2806 47.82C66.4379 48.3987 67.8192 48.688 69.4246 48.688V47.036V45.384C68.1366 45.384 67.1472 45.0387 66.4566 44.348C65.7846 43.6574 65.4486 42.7147 65.4486 41.52V28.696H61.7526V41.408C61.7526 42.9014 62.0512 44.1987 62.6486 45.3C63.2646 46.3827 64.1419 47.2227 65.2806 47.82Z" fill="black"/>
<path d="M106.531 45.384C107.819 45.384 108.799 45.0387 109.471 44.348C110.162 43.6574 110.507 42.7147 110.507 41.52V28.696H114.203V41.408C114.203 42.9014 113.895 44.1987 113.279 45.3C112.682 46.3827 111.805 47.2227 110.647 47.82C109.509 48.3987 108.137 48.688 106.531 48.688H69.4253V45.384H106.531Z" fill="black"/>
<path d="M50.1565 21.696C48.6445 21.696 47.3099 21.4253 46.1525 20.884C44.9952 20.3427 44.0899 19.568 43.4365 18.56C42.7832 17.552 42.4565 16.3387 42.4565 14.92V14.136H46.0965V14.92C46.0965 16.096 46.4605 16.9827 47.1885 17.58C47.9165 18.1587 48.9059 18.448 50.1565 18.448C51.4259 18.448 52.3685 18.196 52.9845 17.692C53.6192 17.188 53.9365 16.544 53.9365 15.76C53.9365 15.2187 53.7779 14.78 53.4605 14.444C53.1619 14.108 52.7139 13.8373 52.1165 13.632C51.5379 13.408 50.8285 13.2027 49.9885 13.016L49.3445 12.876C48.0005 12.5773 46.8432 12.204 45.8725 11.756C44.9205 11.2893 44.1832 10.6827 43.6605 9.93601C43.1565 9.18935 42.9045 8.21868 42.9045 7.02401C42.9045 5.82935 43.1845 4.81201 43.7445 3.97201C44.3232 3.11335 45.1259 2.46001 46.1525 2.01201C47.1979 1.54535 48.4205 1.31201 49.8205 1.31201C51.2205 1.31201 52.4619 1.55468 53.5445 2.04001C54.6459 2.50668 55.5045 3.21601 56.1205 4.16801C56.7552 5.10135 57.0725 6.27735 57.0725 7.69601V8.53601H53.4325V7.69601C53.4325 6.94935 53.2832 6.35201 52.9845 5.90401C52.7045 5.43735 52.2939 5.10134 51.7525 4.89601C51.2112 4.67201 50.5672 4.56001 49.8205 4.56001C48.7005 4.56001 47.8699 4.77468 47.3285 5.20401C46.8059 5.61468 46.5445 6.18401 46.5445 6.91201C46.5445 7.39735 46.6659 7.80801 46.9085 8.14401C47.1699 8.48001 47.5525 8.76001 48.0565 8.98401C48.5605 9.20801 49.2045 9.40401 49.9885 9.57201L50.6325 9.71201C52.0325 10.0107 53.2459 10.3933 54.2725 10.86C55.3179 11.3267 56.1299 11.9427 56.7085 12.708C57.2872 13.4733 57.5765 14.4533 57.5765 15.648C57.5765 16.8427 57.2685 17.8973 56.6525 18.812C56.0552 19.708 55.1965 20.4173 54.0765 20.94C52.9752 21.444 51.6685 21.696 50.1565 21.696Z" fill="black"/>
<path d="M61.5765 21.304V1.70398H74.1765V5.06398H65.2725V9.73998H73.3925V13.1H65.2725V17.944H74.3445V21.304H61.5765Z" fill="black"/>
<path d="M78.3445 21.304L83.4965 1.70398H89.9365L95.0885 21.304H91.2805L90.2165 16.992H83.2165L82.1525 21.304H78.3445ZM84.0845 13.576H89.3485L86.9685 4.02798H86.4645L84.0845 13.576Z" fill="black"/>
<path d="M99.0885 21.304V1.70398H106.117L110.008 18.784H110.513V1.70398H114.153V21.304H107.125L103.233 4.22398H102.729V21.304H99.0885Z" fill="black"/>
<defs>
<clipPath id="clip0_14_75">
<rect width="27.7286" height="50" fill="white"/>
</clipPath>
</defs>
</svg>
